<svg xmlns="http://www.w3.org/2000/svg" id="Layer_1" data-name="Layer 1" viewBox="0 0 602.78 121.57">
  <defs>
    <style>
      .convertr-logo-full {
        fill: #3E3E3E;
        stroke-width: 0px;
      }
    </style>
  </defs>
  <path class="convertr-logo-full" d="M190.41,78.74c-1.78.68-3.74,1.14-5.83,1.37-.55,0-1.05.05-1.55.05-12.8,0-20.41-7.88-20.41-19.32,0-10.39,6.47-18.09,17.45-19.27.55,0,1.05-.05,1.55-.05,3.28,0,6.24.5,8.79,1.5l6.06-13.4c-3.96-1.46-6.65-2.23-15.17-2.23-2.87,0-5.65.32-8.29.87h-.05c-15.31,3.28-25.65,15.67-25.65,32.58,0,19.91,14.13,33.44,33.95,33.44,9.93,0,13.58-1.69,15.13-2.23l-5.97-13.3Z"/>
  <path class="convertr-logo-full" d="M202.26,60.46c0-19.59,14.85-33.67,33.67-33.67s33.67,14.13,33.67,33.67-14.85,33.81-33.67,33.81-33.67-14.22-33.67-33.81ZM235.93,80.06c10.57,0,18.59-8.02,18.59-19.59s-8.02-19.59-18.59-19.59-18.59,8.02-18.59,19.59,8.02,19.59,18.59,19.59Z"/>
  <path class="convertr-logo-full" d="M309.48,26.79c17.09,0,27.43,10.62,27.43,28.2v39.32h-15.49v-38.82c0-9.25-4.37-14.22-11.98-14.22s-11.98,5.01-11.98,14.22v38.82h-15.49v-39.37c.09-17.59,10.3-28.16,27.52-28.16Z"/>
  <path class="convertr-logo-full" d="M344.2,26.79h17.22l16.45,46.57,16.31-46.57h16.31l-25.15,67.53h-15.67l-25.47-67.53Z"/>
  <path class="convertr-logo-full" d="M514.7,26.88h7.88v13.76h-6.38c-5.51,0-7.75,2.23-7.75,7.88v45.75h-15.26v-45.38c0-15.22,7.61-22.01,21.51-22.01Z"/>
  <path class="convertr-logo-full" d="M537.8,40.55h-7.84v-13.76h7.88V10.75l15.26-5.15v21.19h7.97v13.76h-7.97l-.14,53.72h-15.26l.09-53.72Z"/>
  <path class="convertr-logo-full" d="M594.89,26.88h7.88v13.76h-6.38c-5.51,0-7.75,2.23-7.75,7.88v45.75h-15.26v-45.38c-.05-15.22,7.61-22.01,21.51-22.01Z"/>
  <path class="convertr-logo-full" d="M481.66,63.79c.09-1.09.14-2.14.14-3.28,0-19.55-14.81-33.63-33.63-33.63s-33.63,14.08-33.63,33.63,14.81,33.76,33.63,33.76c13.76,0,25.38-7.61,30.62-19.32h-16.54c-3.46,3.74-8.38,5.92-13.99,5.92-9.98,0-17.77-6.88-19.09-17.09h52.49ZM448.27,40.23c8.48,0,15.4,4.97,18.09,12.76h-36.18c2.69-7.79,9.57-12.76,18.09-12.76Z"/>
  <g>
    <path class="convertr-logo-full" d="M68.07,76.18c-17.04,0-29.12-11.94-29.12-29.12s12.07-29.12,29.12-29.12c9.11,0,16.77,3.65,22.87,10.66l13.53-12.48C95.91,5.74,82.79,0,67.07,0H0l7.7,17.91h19.73c-6.2,7.84-9.75,17.82-9.75,29.12,0,27.43,21.05,47.02,49.26,47.02,15.86,0,28.98-5.7,37.55-16.22l-13.53-12.39c-6.11,7.15-13.81,10.75-22.87,10.75Z"/>
    <circle class="convertr-logo-full" cx="32.44" cy="110.81" r="10.75"/>
    <circle class="convertr-logo-full" cx="93.68" cy="110.81" r="10.75"/>
  </g>
</svg>