<?xml version="1.0" encoding="UTF-8"?>
<svg id="Layer_1" data-name="Layer 1" xmlns="http://www.w3.org/2000/svg" viewBox="0 0 103.31 96.11">
  <defs>
    <style>
      .logo-tatuape-conceito-short {
        fill: #FFF;
        stroke-width: 0px;
      }
    </style>
  </defs>
  <path class="logo-tatuape-conceito-short" d="M77.22,65.34c.11-1.68.44-3.27.73-4.68.34-1.65.7-3.36.42-4.18-.18-.54-.61-1.06-1.06-1.48-2.94,2.28-6.45,5.26-9.85,7.28-8,7.97-5.45,22.68-4.63,24.01.36.58.41,1.13.33,1.6l-3.01-1.25c-.14-.09-.3-.14-.4-.16-1.22-.36-4.09,6.12-.9,9.62h4.57s4.09-.08,7.69-2.74c3.15-2.34,6.63-8.82,8.99-14.69-1.7-3.7-3.18-8.44-2.87-13.33Z"/>
  <path class="logo-tatuape-conceito-short" d="M42.63,90.49c-1.66-1.14-.18-3.49-.16-7.6s-2.78-6.9-2.78-6.9c2.56-1.42,3.39-4.91,3.6-7.92-1.59-.27-3.05-.7-4.36-1.29-1.34,3.64-4.06,8.98-9.03,11.39-.31,1.42-.97,3.55-2.37,6.15-.5.93-1.15,1.76-1.86,2.5.78,3.41,1.95,6.73,2.67,6.86,1.24.22,4.41,2.42,4.41,2.42h16.23c-.44-3.2-4.69-4.49-6.36-5.62Z"/>
  <path class="logo-tatuape-conceito-short" d="M96.18,52.92c2.02-4.6-.01-9.94-1.61-13l2.78-1.94,1.56-.06c2.83,0,3.5-3.37,3.5-3.37.87-1.28,1.03-2.55.8-3.68.04-.73-.17-1.01-.44-1.28-.76-1.55-1.62-2.61-3.37-2.83l.93-4.5h0c.05-.3-.09-.64-.35-1.04h0c-.05-.07-.09-.14-.14-.21l-2.5-3.62c-.16-.28-.34-.54-.53-.76h0c-1.59-1.87-4.14-1.92-4.67-2.98-.15-.3-.41-.7-.77-1.15h.04c.04-.08.07-.16.11-.24,1.31-2.64,2.62-5.27,3.92-7.91.05-.1.13-.18.11-.3-.05,0-.11,0-.16.02-1.21.34-2.41.69-3.62,1.03-.17.05-.18.14-.15.28.27,1.26-.86,2.59-2.29,2.39-.81-.12-1.37-.56-1.66-1.31-.3-.78-.15-1.5.41-2.11.15-.16.12-.24,0-.37-.49-.56-.97-1.12-1.46-1.68-.64-.73-1.27-1.46-1.9-2.2-.11-.13-.18-.13-.29,0-.17.22-.36.43-.55.64-.95,1.09-1.89,2.18-2.84,3.27-.1.11-.11.18,0,.3.47.5.66,1.1.54,1.79-.21,1.14-1.24,1.85-2.41,1.66-1.08-.17-1.83-1.25-1.64-2.36.03-.18,0-.26-.19-.32-.77-.21-1.55-.44-2.32-.65-.47-.13-.93-.3-1.42-.38-.02.09.04.16.08.24.76,1.55,1.53,3.09,2.3,4.64.58,1.17,1.16,2.34,1.74,3.51-3.01,2.53-6.1,5.81-8,8.21h0s0,0,0,0c-.1.12-.19.25-.28.36-.05.06-.09.11-.13.17-.08.11-.15.21-.23.31-.04.06-.08.12-.13.17-.03.04-.05.08-.08.12-.93,1.31-1.58,2.47-2.04,3.47,0,0,0,.01-.02.02-.02.05-.04.09-.05.14-.21.47-.37.91-.5,1.3l-22.29,8.99c-1.16-.39-2.37-.7-3.53-.95-3.02-.52-6.64-.17-9.88,1.09-10.5,4.07-15.64,13.72-18.16,22.33h0c-.31,1.06-.58,2.1-.82,3.12h0c-.06.28-.13.56-.19.83l-3.1,13.86c-1.07,1.15-2.45,2.77-3.57,4.57-2.15,3.45-4.36,9.64-4.66,10.74-.52,1.87,2.82,4.79,2.82,4.79h17.88c1.28-3.19-2.28-4.48-3.34-5.62s5.44-3.37,7.67-7.48c2.23-4.11,2.31-6.8,2.31-6.8,4.32-1.39,6.56-4.41,7.9-7.44h0c.2-.46.37-.91.54-1.35l1.68-4.19,2.11.85c.54.27,1.11.5,1.71.69h0s0,0,0,0c6.46,2.13,15.67.05,21.35-2.81,1.8-.91,5.28-3.38,8.38-5.69h0l6.48-4.51c1.15.69,2.65,1.56,3.42,3.84.84,2.5-.76,6.08-1.01,9.91-.67,10.33,7.87,20.98,9.4,21.99,1.29.86,1.34,1.9,1.23,2.49h-.11s-3.32-1.39-3.32-1.39c0,0-.02,0-.03-.01h0c-.23-.09-.49-.1-.64-.1-1.36,0-2,5.32,2.87,7.6h5.62s3.4-.45,5.98-4.48c3.34-5.22.79-22.66-1.6-25.67-1.37-1.74-4.31-10.46-3.18-13.03Z"/>
</svg>